<svg xmlns="http://www.w3.org/2000/svg" width="241" height="209" viewBox="0 0 241 209" version="1.1">
	<path d="M 16 104.500 L 16 193 104.500 193 L 193 193 193 104.500 L 193 16 104.500 16 L 16 16 16 104.500 M 209 40 L 209 48 217 48 L 225 48 225 40 L 225 32 217 32 L 209 32 209 40 M 33 40 L 33 47 40 47 L 47 47 47 40 L 47 33 40 33 L 33 33 33 40 M 49 40 L 49 47 56 47 L 63 47 63 40 L 63 33 56 33 L 49 33 49 40 M 65 40 L 65 47 72.500 47 L 80 47 80 40 L 80 33 72.500 33 L 65 33 65 40 M 81 40 L 81 47 88.500 47 L 96 47 96 40 L 96 33 88.500 33 L 81 33 81 40 M 97 40 L 97 47 104.500 47 L 112 47 112 40 L 112 33 104.500 33 L 97 33 97 40 M 113 40 L 113 47 120.500 47 L 128 47 128 40 L 128 33 120.500 33 L 113 33 113 40 M 129 40 L 129 47 136.500 47 L 144 47 144 40 L 144 33 136.500 33 L 129 33 129 40 M 161 40 L 161 47 168.500 47 L 176 47 176 40 L 176 33 168.500 33 L 161 33 161 40 M 129 56.500 L 129 64 136.500 64 L 144 64 144 56.500 L 144 49 136.500 49 L 129 49 129 56.500 M 161.206 56.250 L 161.500 63.500 168.750 63.794 L 176 64.088 176 56.544 L 176 49 168.456 49 L 160.912 49 161.206 56.250 M 206.136 54.750 C 206.007 57.824, 206.190 58, 209.500 58 C 212.810 58, 212.993 57.824, 212.864 54.750 C 212.765 52.400, 212.608 52.123, 212.294 53.750 C 211.778 56.429, 210.331 56.706, 209.689 54.250 C 209.254 52.583, 209.226 52.583, 209.116 54.250 C 208.949 56.767, 207.218 56.408, 206.706 53.750 C 206.392 52.123, 206.235 52.400, 206.136 54.750 M 215.079 55.250 C 215.122 57.038, 215.391 57.919, 215.676 57.208 C 216.074 56.216, 216.520 56.187, 217.597 57.081 C 218.750 58.037, 219 57.688, 219 55.122 C 219 52.667, 218.573 52, 217 52 C 215.394 52, 215.016 52.640, 215.079 55.250 M 221.136 54.750 C 221.041 57.033, 221.446 58, 222.500 58 C 223.325 58, 224 57.550, 224 57 C 224 56.450, 223.581 56, 223.070 56 C 222.558 56, 221.944 54.987, 221.706 53.750 C 221.392 52.123, 221.235 52.400, 221.136 54.750 M 226.136 54.750 C 226.026 57.379, 226.382 58, 228 58 C 229.100 58, 230 57.550, 230 57 C 230 56.450, 229.356 56, 228.570 56 C 227.783 56, 226.944 54.987, 226.706 53.750 C 226.392 52.123, 226.235 52.400, 226.136 54.750 M 216 54 C 216 54.550, 216.450 55, 217 55 C 217.550 55, 218 54.550, 218 54 C 218 53.450, 217.550 53, 217 53 C 216.450 53, 216 53.450, 216 54 M 33 72.500 L 33 80 40 80 L 47 80 47 72.500 L 47 65 40 65 L 33 65 33 72.500 M 49 72.500 L 49 80 56 80 L 63 80 63 72.500 L 63 65 56 65 L 49 65 49 72.500 M 65 72.544 L 65 80.088 72.250 79.794 L 79.500 79.500 79.794 72.250 L 80.088 65 72.544 65 L 65 65 65 72.544 M 81 72.500 L 81 80 88.500 80 L 96 80 96 72.500 L 96 65 88.500 65 L 81 65 81 72.500 M 97 72.500 L 97 80 104.500 80 L 112 80 112 72.500 L 112 65 104.500 65 L 97 65 97 72.500 M 129 72.500 L 129 80 136.500 80 L 144 80 144 72.500 L 144 65 136.500 65 L 129 65 129 72.500 M 161.206 72.250 L 161.500 79.500 168.750 79.794 L 176 80.088 176 72.544 L 176 65 168.456 65 L 160.912 65 161.206 72.250 M 33 88.500 L 33 96 40 96 L 47 96 47 88.500 L 47 81 40 81 L 33 81 33 88.500 M 65 88.500 L 65 96 72.500 96 L 80 96 80 88.500 L 80 81 72.500 81 L 65 81 65 88.500 M 129 88.500 L 129 96 136.500 96 L 144 96 144 88.500 L 144 81 136.500 81 L 129 81 129 88.500 M 161 88.500 L 161 96 168.500 96 L 176 96 176 88.500 L 176 81 168.500 81 L 161 81 161 88.500 M 33 104.500 L 33 112 40 112 L 47 112 47 104.500 L 47 97 40 97 L 33 97 33 104.500 M 65 104.500 L 65 112 72.500 112 L 80 112 80 104.500 L 80 97 72.500 97 L 65 97 65 104.500 M 97 104.500 L 97 112 104.500 112 L 112 112 112 104.500 L 112 97 104.500 97 L 97 97 97 104.500 M 113 104.500 L 113 112 120.500 112 L 128 112 128 104.500 L 128 97 120.500 97 L 113 97 113 104.500 M 129 104.500 L 129 112 136.500 112 L 144 112 144 104.500 L 144 97 136.500 97 L 129 97 129 104.500 M 161 104.500 L 161 112 168.500 112 L 176 112 176 104.500 L 176 97 168.500 97 L 161 97 161 104.500 M 33 120.500 L 33 128 40 128 L 47 128 47 120.500 L 47 113 40 113 L 33 113 33 120.500 M 97 120.500 L 97 128 104.500 128 L 112 128 112 120.500 L 112 113 104.500 113 L 97 113 97 120.500 M 161 120.500 L 161 128 168.500 128 L 176 128 176 120.500 L 176 113 168.500 113 L 161 113 161 120.500 M 33 136.500 L 33 144 40 144 L 47 144 47 136.500 L 47 129 40 129 L 33 129 33 136.500 M 65 136.456 L 65 144 72.544 144 L 80.088 144 79.794 136.750 L 79.500 129.500 72.250 129.206 L 65 128.912 65 136.456 M 81 136.500 L 81 144 88.500 144 L 96 144 96 136.500 L 96 129 88.500 129 L 81 129 81 136.500 M 97 136.500 L 97 144 104.500 144 L 112 144 112 136.500 L 112 129 104.500 129 L 97 129 97 136.500 M 129 136.500 L 129 144 136.500 144 L 144 144 144 136.500 L 144 129 136.500 129 L 129 129 129 136.500 M 145 136.500 L 145 144 152.500 144 L 160 144 160 136.500 L 160 129 152.500 129 L 145 129 145 136.500 M 161.667 129.667 C 161.300 130.033, 161 133.408, 161 137.167 L 161 144 168.500 144 L 176 144 176 136.500 L 176 129 169.167 129 C 165.408 129, 162.033 129.300, 161.667 129.667 M 33 152.500 L 33 160 40 160 L 47 160 47 152.500 L 47 145 40 145 L 33 145 33 152.500 M 65 152.456 L 65 160 72.544 160 L 80.088 160 79.794 152.750 L 79.500 145.500 72.250 145.206 L 65 144.912 65 152.456 M 129 152.500 L 129 160 136.500 160 L 144 160 144 152.500 L 144 145 136.500 145 L 129 145 129 152.500 M 161.667 145.667 C 161.300 146.033, 161 149.408, 161 153.167 L 161 160 168.500 160 L 176 160 176 152.500 L 176 145 169.167 145 C 165.408 145, 162.033 145.300, 161.667 145.667 M 33 169 L 33 176 40 176 L 47 176 47 169 L 47 162 40 162 L 33 162 33 169 M 49 169 L 49 176 56 176 L 63 176 63 169 L 63 162 56 162 L 49 162 49 169 M 65 169 L 65 176 72.500 176 L 80 176 80 169 L 80 162 72.500 162 L 65 162 65 169 M 81 169 L 81 176 88.500 176 L 96 176 96 169 L 96 162 88.500 162 L 81 162 81 169 M 97 169 L 97 176 104.500 176 L 112 176 112 169 L 112 162 104.500 162 L 97 162 97 169 M 113 169 L 113 176 120.500 176 L 128 176 128 169 L 128 162 120.500 162 L 113 162 113 169 M 129 169 L 129 176 136.500 176 L 144 176 144 169 L 144 162 136.500 162 L 129 162 129 169 M 161 169 L 161 176 168.500 176 L 176 176 176 169 L 176 162 168.500 162 L 161 162 161 169" stroke="none" fill="black" fill-rule="evenodd"/>
</svg>