<?xml version="1.0" standalone="no"?>
<!DOCTYPE svg PUBLIC "-//W3C//DTD SVG 20010904//EN"
 "http://www.w3.org/TR/2001/REC-SVG-20010904/DTD/svg10.dtd">
<svg version="1.0" xmlns="http://www.w3.org/2000/svg"
 width="225.000000pt" height="225.000000pt" viewBox="0 0 225.000000 225.000000"
 preserveAspectRatio="xMidYMid meet">
<metadata>
Created by potrace 1.11, written by Peter Selinger 2001-2013
</metadata>
<g transform="translate(0.000000,225.000000) scale(0.100000,-0.100000)"
fill="#000000" stroke="none">
<path d="M0 1160 l0 -1090 740 0 740 0 0 35 0 35 -280 0 -280 0 0 210 0 210
-180 0 -180 0 0 -140 0 -140 -140 0 -140 0 0 -35 0 -35 175 0 175 0 0 140 0
140 105 0 105 0 0 -176 0 -175 -32 3 -33 3 -3 138 -3 137 -34 0 -35 0 0 -140
0 -140 -315 0 -315 0 0 105 0 105 35 0 35 0 0 -70 0 -70 35 0 35 0 0 70 0 70
140 0 140 0 0 140 0 140 245 0 245 0 0 -70 0 -70 70 0 70 0 0 -70 0 -70 146 0
145 0 -3 -32 -3 -33 -172 -3 -173 -2 0 70 0 70 -40 0 -40 0 0 -105 0 -105 250
0 250 0 0 280 0 280 140 0 140 0 0 70 0 70 105 0 105 0 0 -175 0 -175 -35 0
-35 0 0 140 0 140 -35 0 -34 0 -3 -67 -3 -68 -137 -3 -138 -3 0 -34 0 -35 140
0 140 0 0 -70 0 -70 105 0 105 0 0 250 0 250 -140 0 -140 0 0 100 0 100 70 0
70 0 0 40 0 40 -105 0 -105 0 -2 -212 -3 -213 -172 -3 -173 -2 0 105 0 105 71
0 70 0 -3 38 -3 37 -105 0 -105 0 0 -175 0 -175 73 -3 72 -3 -2 -172 -3 -172
-102 -3 -103 -3 0 71 0 70 -70 0 -70 0 0 70 0 70 -70 0 -70 0 0 105 0 104 68
3 67 3 0 35 0 35 -175 0 -175 0 -3 -37 -3 -38 70 0 71 0 0 -105 0 -105 -280 0
-280 0 0 -35 0 -35 70 0 70 0 0 -105 0 -105 -175 0 -175 0 0 315 0 315 140 0
140 0 0 140 0 140 35 0 35 0 0 -170 0 -170 -140 0 -140 0 0 -250 0 -250 105 0
105 0 0 35 0 35 -70 0 -70 0 0 105 0 105 280 0 280 0 0 35 0 34 -67 3 -68 3
-3 103 -3 102 246 0 245 0 0 -105 0 -105 -70 0 -70 0 0 -35 0 -35 70 0 70 0 0
-70 0 -70 70 0 70 0 0 -70 0 -70 40 0 40 0 0 105 0 105 -70 0 -70 0 0 245 0
245 175 0 175 0 0 -100 0 -100 -70 0 -70 0 0 -40 0 -40 105 0 105 0 0 210 0
210 175 0 175 0 0 -100 0 -100 -70 0 -70 0 0 -40 0 -40 105 0 105 0 0 180 0
180 -70 0 -70 0 0 350 0 350 -175 0 -175 0 0 -35 0 -35 140 0 140 0 0 -175 0
-175 -105 0 -105 0 0 70 0 70 -35 0 -35 0 0 -70 0 -70 -70 0 -70 0 0 -35 0
-34 138 -3 137 -3 3 -67 3 -68 34 0 35 0 0 71 0 70 33 -3 32 -3 3 -102 3 -103
-211 0 -210 0 0 -40 0 -40 70 0 70 0 0 -30 0 -30 -175 0 -174 0 -3 68 -3 67
-35 0 -35 0 -3 -137 -3 -138 -244 0 -245 0 0 140 0 140 -35 0 -35 0 0 -285 0
-285 -172 2 -173 3 -3 33 -3 32 140 0 141 0 0 250 0 250 -70 0 -70 0 0 315 0
315 175 0 175 0 0 -105 0 -105 -70 0 -70 0 0 -105 0 -105 320 0 320 0 0 105 0
105 -180 0 -180 0 0 -35 0 -35 140 0 140 0 0 -35 0 -35 -246 0 -245 0 3 33 3
32 67 3 67 3 3 137 3 137 143 3 142 3 0 34 0 35 -390 0 -390 0 0 -140 0 -140
-70 0 -70 0 0 -35 0 -35 70 0 70 0 0 -175 0 -175 -70 0 -70 0 0 -110 0 -110
35 0 35 0 0 70 0 70 35 0 35 0 0 -100 0 -100 -105 0 -105 0 0 245 0 245 35 0
35 0 0 -70 0 -70 35 0 35 0 0 105 0 105 -70 0 -70 0 0 245 0 245 35 0 35 0 0
-140 0 -140 35 0 35 0 0 140 0 140 425 0 425 0 0 35 0 35 -530 0 -530 0 0
-1090z"/>
<path d="M1120 2215 l0 -34 143 -3 142 -3 3 -172 2 -173 -35 0 -35 0 0 70 0
70 -70 0 -70 0 0 35 0 35 70 0 70 0 0 35 0 35 -110 0 -110 0 0 -70 0 -70 -140
0 -140 0 0 -35 0 -35 210 0 210 0 0 -175 0 -175 -140 0 -140 0 0 -140 0 -140
-105 0 -106 0 3 103 3 102 32 3 32 3 3 -73 3 -73 35 0 35 0 0 105 0 105 -212
3 -213 2 0 175 0 175 70 0 70 0 0 35 0 35 -105 0 -105 0 0 -245 0 -245 140 0
139 0 3 -142 3 -143 175 0 175 0 3 143 3 142 99 0 99 0 3 -72 3 -73 35 0 35 0
3 73 3 72 139 0 140 0 0 35 0 35 -140 0 -140 0 0 105 0 105 70 0 70 0 0 70 0
70 105 0 105 0 0 -70 0 -70 35 0 35 0 0 105 0 105 -140 0 -140 0 0 105 0 105
315 0 315 0 0 -315 0 -315 -35 0 -35 0 0 280 0 280 -35 0 -35 0 0 -315 0 -314
68 -3 67 -3 3 -527 2 -528 -175 0 -175 0 0 70 0 70 -105 0 -105 0 0 -175 0
-175 35 0 35 0 0 140 0 140 35 0 35 0 0 -70 0 -70 140 0 140 0 0 -70 0 -70 35
0 35 0 0 70 0 70 35 0 35 0 0 -105 0 -105 -175 0 -175 0 0 35 0 35 70 0 70 0
0 35 0 35 -105 0 -105 0 0 -70 0 -70 -70 0 -70 0 0 -35 0 -35 315 0 315 0 0
1090 0 1090 -530 0 -530 0 0 -35z"/>
</g>
</svg>
